ply
format ascii 1.0
element vertex 9
property float x
property float y
property float z
property uint8 red
property uint8 green
property uint8 blue
end_header
-6.342885 53.618168 -72.091270 99 97 93
-0.958610 7.141321 4.331993 148 138 127
-26.096611 197.473175 -143.325897 114 101 93
-35.255997 228.936584 -345.371887 106 106 101
0.456459 5.074696 1.799281 137 132 129
1.229784 16.599087 -1.815437 0 0 0
0.456459 5.074696 1.799281 117 97 105
-0.036229 37.921242 -45.004734 0 0 0
-7.052716 58.547768 -74.196800 116 116 113
